<mxfile host="app.diagrams.net" modified="2024-06-26T15:59:32.683Z" agent="Mozilla/5.0 (Windows NT 10.0; Win64; x64) AppleWebKit/537.36 (KHTML, like Gecko) Chrome/126.0.0.0 Safari/537.36" version="24.6.2" etag="MIELFnE2fSUlZeJ4vXft" type="github">
  <diagram name="PÃ¡gina-1" id="Yx8SZj0M8H1HkZwJtt2Z">
    <mxGraphModel>
      <root>
        <mxCell id="0" />
        <mxCell id="1" parent="0" />
      </root>
    </mxGraphModel>
  </diagram>
</mxfile>
